<svg width="152" height="235" viewBox="0 0 152 235" fill="none" xmlns="http://www.w3.org/2000/svg">
<path d="M12.4941 196.567H13.8775C14.6591 200.146 15.9175 202.749 17.6526 204.375C19.4033 206.001 21.4042 206.813 23.6551 206.813C25.8436 206.813 27.3989 206.258 28.3212 205.149C29.2435 204.023 29.7046 202.843 29.7046 201.608C29.7046 200.17 29.22 198.998 28.2509 198.091C27.61 197.497 26.3203 196.723 24.382 195.77L21.2635 194.222C18.1684 192.69 15.9878 191.174 14.7217 189.673C13.4555 188.173 12.8224 186.32 12.8224 184.116C12.8224 181.771 13.6587 179.583 15.3313 177.551C17.0195 175.519 19.5987 174.503 23.0689 174.503C24.8353 174.503 26.5392 174.768 28.1805 175.3C29.8374 175.831 30.7832 176.097 31.0176 176.097C31.5491 176.097 31.9165 175.949 32.1197 175.652C32.3229 175.339 32.487 174.933 32.6121 174.432H34.0424V184.89H32.7059C32.065 182.467 30.9317 180.38 29.306 178.629C27.6959 176.879 25.7342 176.003 23.4207 176.003C21.795 176.003 20.5054 176.449 19.5518 177.34C18.6139 178.215 18.145 179.286 18.145 180.552C18.145 182.068 18.5905 183.202 19.4815 183.952C20.3569 184.718 22.303 185.843 25.3199 187.328L28.9308 189.11C30.5409 189.908 31.8227 190.791 32.7762 191.76C34.5582 193.573 35.4492 195.777 35.4492 198.372C35.4492 200.795 34.4879 203.085 32.5652 205.242C30.6581 207.384 27.5943 208.455 23.3738 208.455C22.4046 208.455 21.4198 208.361 20.4194 208.173C19.4346 208.001 18.4576 207.728 17.4885 207.353L16.5506 207.001C16.3317 206.939 16.1207 206.891 15.9175 206.86C15.7142 206.813 15.5423 206.79 15.4016 206.79C14.9014 206.79 14.5575 206.939 14.3699 207.235C14.1824 207.517 14.0182 207.923 13.8775 208.455H12.4941V196.567ZM36.6525 187.774V186.437C37.0746 186.047 37.5983 185.586 38.2235 185.054C39.052 184.288 39.8336 183.499 40.5683 182.686C42.022 181.091 43.3428 179.38 44.531 177.551H45.7501V185.664H50.3226V187.774H45.7501V202.218C45.7501 202.89 45.8519 203.453 46.0551 203.906C46.3675 204.609 46.8834 204.961 47.6025 204.961C48.2277 204.961 48.7514 204.742 49.1734 204.305C49.5957 203.851 50.0176 203.234 50.4396 202.452L51.5885 203.015C51.0258 204.328 50.3538 205.399 49.5723 206.227C48.1965 207.681 46.5161 208.408 44.531 208.408C43.4055 208.408 42.4205 208.197 41.5765 207.775C39.9508 206.962 39.138 205.485 39.138 203.343V187.774H36.6525ZM52.6849 196.778C52.6849 193.433 53.7089 190.642 55.7567 188.407C57.8201 186.172 60.4072 185.054 63.5177 185.054C66.6909 185.054 69.2858 186.195 71.3024 188.477C73.3343 190.76 74.3505 193.526 74.3505 196.778C74.3505 199.982 73.3502 202.741 71.3492 205.055C69.3483 207.353 66.7378 208.502 63.5177 208.502C60.3913 208.502 57.8045 207.384 55.7567 205.149C53.7089 202.898 52.6849 200.107 52.6849 196.778ZM59.7427 196.778C59.7427 200.139 59.9147 202.491 60.2586 203.836C60.8057 205.914 61.8919 206.954 63.5177 206.954C65.0651 206.954 66.0814 206.157 66.5658 204.562C67.0505 202.968 67.2927 200.373 67.2927 196.778C67.2927 193.198 67.0349 190.611 66.519 189.017C66.0186 187.407 65.0261 186.602 63.5411 186.602C61.9156 186.602 60.8291 187.641 60.282 189.72C59.9225 191.111 59.7427 193.464 59.7427 196.778ZM87.7803 185.054C89.7969 185.054 91.5397 185.546 93.0091 186.531C94.4942 187.516 95.2367 188.782 95.2367 190.33C95.2367 191.158 94.9396 191.877 94.3456 192.487C93.7673 193.097 93.0247 193.401 92.118 193.401C91.5085 193.401 90.977 193.261 90.5235 192.979C89.6639 192.479 89.2341 191.572 89.2341 190.259C89.2341 190.119 89.2419 189.916 89.2575 189.65C89.2731 189.368 89.281 189.071 89.281 188.759C89.281 187.915 89.0856 187.336 88.6948 187.024C88.2881 186.711 87.8271 186.555 87.3112 186.555C85.8262 186.555 84.7712 187.375 84.1458 189.017C83.5206 190.642 83.2079 192.51 83.2079 194.621C83.2079 197.622 83.8021 200.139 84.99 202.171C86.1779 204.203 87.7803 205.219 89.7969 205.219C91.0628 205.219 92.1415 204.938 93.0325 204.375C93.5641 204.047 94.2204 203.445 95.002 202.569L95.8931 203.39C94.33 205.563 92.501 207.056 90.4064 207.868C89.2966 208.291 88.1164 208.502 86.8658 208.502C83.7862 208.502 81.2696 207.4 79.3158 205.195C77.3617 202.991 76.3848 200.303 76.3848 197.13C76.3848 193.784 77.4166 190.939 79.48 188.595C81.559 186.234 84.3255 185.054 87.7803 185.054ZM96.5506 206.626C97.3946 206.423 97.9886 206.157 98.3325 205.829C98.6921 205.485 98.8718 204.781 98.8718 203.718V179.263C98.8718 178.247 98.7077 177.582 98.3793 177.27C98.0513 176.957 97.4414 176.699 96.5506 176.496V175.323H105.554V196.004L111.651 189.884C112.01 189.525 112.268 189.189 112.424 188.876C112.581 188.548 112.659 188.29 112.659 188.102C112.659 187.618 112.44 187.297 112.002 187.141C111.58 186.985 110.854 186.86 109.822 186.766V185.664H120.115V186.766C119.13 186.891 118.349 187.063 117.771 187.282C116.739 187.688 115.738 188.376 114.769 189.345L111.041 193.12L120.326 205.899C120.514 206.164 120.694 206.344 120.865 206.438C121.037 206.516 121.264 206.579 121.546 206.626V207.775H110.338V206.626C111.025 206.595 111.526 206.508 111.838 206.368C112.167 206.227 112.331 206.008 112.331 205.711C112.331 205.555 112.26 205.344 112.12 205.078C111.995 204.797 111.674 204.289 111.158 203.554L106.609 197.106L105.554 198.278V203.718C105.554 204.797 105.687 205.516 105.953 205.875C106.219 206.235 106.899 206.485 107.993 206.626V207.775H96.5506V206.626ZM123.375 206.626C124.297 206.516 124.938 206.297 125.297 205.969C125.657 205.641 125.852 205.008 125.883 204.07L125.93 202.663V189.603C125.93 188.602 125.758 187.922 125.415 187.563C125.071 187.203 124.39 186.961 123.375 186.836V185.664H132.495V189.439C133.512 188.11 134.52 187.055 135.52 186.273C136.521 185.492 137.677 185.101 138.99 185.101C139.975 185.101 140.858 185.421 141.64 186.062C142.437 186.688 142.836 187.61 142.836 188.829C142.836 189.767 142.555 190.541 141.992 191.15C141.445 191.76 140.726 192.065 139.834 192.065C138.819 192.065 137.935 191.588 137.185 190.635C136.45 189.681 135.935 189.204 135.637 189.204C134.997 189.204 134.348 189.603 133.691 190.4C133.05 191.182 132.73 192.307 132.73 193.777V202.851C132.73 204.445 132.957 205.446 133.41 205.852C133.879 206.243 134.801 206.501 136.177 206.626V207.775H123.375V206.626Z" fill="#374142"/>
<path fill-rule="evenodd" clip-rule="evenodd" d="M75.7949 46.4361L16.631 100.221L75.7949 154.007L134.959 100.221L75.7949 46.4361ZM78.1486 36.7537C76.814 35.5404 74.7758 35.5404 73.4412 36.7537L6.47468 97.6323C4.94756 99.0206 4.94757 101.422 6.47469 102.811L73.4412 163.689C74.7758 164.902 76.814 164.902 78.1486 163.689L145.115 102.811C146.642 101.422 146.642 99.0206 145.115 97.6323L78.1486 36.7537Z" fill="#768D8F"/>
<path d="M145.115 71.3186C146.642 69.9303 146.642 67.5287 145.115 66.1404L78.1481 5.26177C76.8135 4.04848 74.7753 4.04849 73.4407 5.26178L6.4742 66.1404C4.94708 67.5287 4.94708 69.9303 6.4742 71.3186L55.639 116.014C56.9737 117.227 59.0119 117.227 60.3465 116.014L73.4407 104.11C74.7753 102.897 76.8135 102.897 78.1482 104.11L91.2424 116.014C92.577 117.227 94.6152 117.227 95.9498 116.014L145.115 71.3186Z" fill="#374142"/>
</svg>
